<svg width="260" height="95" viewBox="0 0 260 95" fill="none" xmlns="http://www.w3.org/2000/svg">
<path d="M113.815 9.16057L97.9736 18.3897V35.9182V53.4467L113.987 62.8136C128.037 71.0096 130.069 72.1116 130.689 71.7328C131.068 71.5261 138.403 67.2559 146.978 62.297L162.543 53.2401V35.9182V18.6308L146.633 9.3672C137.886 4.27051 130.482 0.0691829 130.207 0.000308745C129.897 -0.0341283 122.527 4.09832 113.815 9.16057ZM145.772 10.5725L160.821 19.354V35.9182V52.5169L145.807 61.2639C137.507 66.0851 130.551 70.0454 130.276 70.1142C130 70.1831 122.906 66.2228 114.503 61.3328L99.1789 52.448V35.9182V19.3884L114.435 10.5036C122.803 5.64799 129.897 1.68773 130.207 1.72216C130.482 1.79104 137.507 5.7513 145.772 10.5725Z" fill="#1F4A83"/>
<path d="M129.715 21.2576V21.2566L135.854 21.1697L132.711 15.6453L129.548 10.1111L128.733 11.5164C126.598 15.2177 125.104 17.8384 124.161 19.5496C123.759 20.2781 123.462 20.8367 123.258 21.24C123.611 21.2486 124.059 21.2555 124.582 21.2605C125.92 21.2734 127.739 21.2747 129.715 21.2576Z" fill="#0097B1" stroke="#1F4A83" stroke-width="1.29139"/>
<path d="M119.772 26.1725C120.151 26.7923 121.081 28.4797 121.907 29.8917C124.628 34.6784 124.146 34.5062 125.936 31.4069C126.763 29.8917 127.934 27.8599 128.485 26.8612L129.518 25.0705H124.318H119.083L119.772 26.1725Z" fill="#0097B1"/>
<path d="M133.099 27.2056C133.754 28.4109 134.89 30.4083 135.613 31.6824C136.302 32.9911 136.956 34.0242 137.06 34.0242C137.163 34.0242 137.817 32.9911 138.506 31.6824C139.229 30.4083 140.366 28.4109 141.02 27.2056L142.26 25.0705H137.06H131.86L133.099 27.2056Z" fill="#0097B1"/>
<path d="M143.878 30.6839L140.572 36.2627L143.809 36.366C145.6 36.4005 148.493 36.4005 150.249 36.366L153.486 36.2627L150.318 30.6839L147.184 25.1051L143.878 30.6839Z" fill="#1F4A83"/>
<path d="M114.71 26.8269C114.331 27.4812 112.85 29.9262 111.473 32.3024L108.89 36.607L110.336 36.6759C114.538 36.917 121.563 36.917 121.563 36.6759C121.563 36.4348 115.846 26.1726 115.502 25.7938C115.433 25.7249 115.089 26.207 114.71 26.8269Z" fill="#1F4A83"/>
<path d="M125.007 34.5408C125.007 34.9196 130.344 44.011 130.551 44.011C130.792 44.011 136.026 34.9885 136.026 34.5752C136.026 34.4719 133.547 34.3686 130.517 34.3686C127.486 34.3686 125.007 34.4375 125.007 34.5408Z" fill="#1F4A83"/>
<path d="M137.232 42.7025C137.886 43.9078 139.332 46.4562 140.4 48.3502L142.397 51.8284L144.567 48.0059C145.772 45.9052 147.219 43.3568 147.77 42.3582L148.803 40.5674H142.397H135.992L137.232 42.7025Z" fill="#0097B1"/>
<path d="M111.989 42.5989C112.265 43.3565 117.981 53.3088 118.119 53.3088C118.223 53.3088 119.738 50.8294 121.46 47.7989L124.628 42.289H118.257C114.469 42.289 111.921 42.4267 111.989 42.5989Z" fill="#0097B1"/>
<path d="M126.453 52.517L122.94 58.6468L129.897 58.7502C133.685 58.7846 136.887 58.7846 136.956 58.6813C137.094 58.5435 130.723 47.2137 130.207 46.6627C130.034 46.525 128.347 49.1422 126.453 52.517Z" fill="#1F4A83"/>
<path d="M210.135 81.9261C205.865 82.4426 203.695 84.5777 203.695 88.2625C203.695 92.6016 206.554 94.7711 212.305 94.7367C214.474 94.7367 215.852 94.53 216.919 94.1168C218.297 93.5314 218.435 93.5314 218.744 94.0479C218.917 94.3923 219.468 94.6333 220.053 94.6333H221.086V91.534V88.4347H217.47H213.854V89.4678C213.854 90.3976 213.958 90.5009 214.991 90.5009L216.093 90.5353L215.232 91.0175C214.095 91.6718 211.65 91.6718 210.445 91.0175C209.136 90.3631 208.551 88.7102 209.068 87.1605C209.722 85.0943 212.684 84.3367 214.715 85.6797C215.507 86.1963 216.334 86.3684 218.4 86.3684C220.845 86.3684 221.017 86.334 220.845 85.6797C220.57 84.6122 218.159 82.6492 216.713 82.2704C214.681 81.7883 212.511 81.6506 210.135 81.9261Z" fill="#1F4A83"/>
<path d="M0 88.2627V94.6335H7.57616H15.1523V93.0839V91.5342H10.1589H5.16556V90.5011V89.468H9.12583H13.0861V88.2627V87.0574H9.09139H5.13113L5.23444 86.0931L5.33775 85.1633L9.91788 85.06L14.4636 84.9567V83.4415V81.8918H7.23179H0V88.2627Z" fill="#1F4A83"/>
<path d="M17.5629 88.2627V94.6335H20.1456H22.7284V90.5011C22.7284 88.2282 22.8662 86.3686 23.0384 86.3686C23.1761 86.3686 24.8635 88.2282 26.7231 90.5011L30.1324 94.6335H33.3351H36.5033V88.2627V81.8918H33.9205H31.3377V86.0243C31.3377 88.2971 31.2 90.1567 31.0622 90.1567C30.9245 90.1567 29.237 88.2971 27.343 86.0243L23.9337 81.8918H20.7655H17.5629V88.2627Z" fill="#1F4A83"/>
<path d="M38.2252 82.064C38.2252 82.1329 39.8093 84.9912 41.7034 88.4349L45.216 94.6335H47.661H50.106L52.4133 90.3978C53.7219 88.0905 55.306 85.2322 55.9948 84.0269L57.2001 81.8918H54.5828H51.9656L49.7961 86.4375L47.6265 91.0177L45.8014 87.2296C44.8371 85.1289 43.8729 83.0971 43.7007 82.6494C43.4252 81.9607 43.1842 81.8918 40.808 81.8918C39.3961 81.8918 38.2252 81.9607 38.2252 82.064Z" fill="#1F4A83"/>
<path d="M58.5431 88.2627V94.6335H61.1259H63.7087V88.2627V81.8918H61.1259H58.5431V88.2627Z" fill="#1F4A83"/>
<path d="M66.808 88.2282V94.6335H69.3563H71.9391L72.0424 92.8084L72.1457 91.0177L74.4186 90.9143C77.0358 90.811 78.0689 91.362 78.6888 93.2905L79.102 94.4614L81.6159 94.5647C84.061 94.668 84.0954 94.668 83.8888 93.8759C83.7855 93.4282 83.6822 92.8084 83.6822 92.464C83.6822 92.1196 83.3034 91.4653 82.8557 91.0177L81.9947 90.1567L83.0279 89.158C84.3709 87.815 84.4742 85.2322 83.2 83.8547C81.9259 82.5117 80.2385 82.1673 73.2822 81.9951L66.808 81.8229V88.2282ZM77.9656 85.3355C78.9298 85.6799 79.1365 86.6441 78.4477 87.3329C78.1722 87.6084 76.8981 87.7461 75.004 87.7461H71.9735V86.6097C71.9735 85.9554 72.0769 85.3355 72.2146 85.2322C72.559 84.8534 76.9669 84.9567 77.9656 85.3355Z" fill="#1F4A83"/>
<path d="M86.4371 88.2627V94.6335H89.0199H91.6027V88.2627V81.8918H89.0199H86.4371V88.2627Z" fill="#1F4A83"/>
<path d="M94.3577 88.2627V94.6335H99.661C107.203 94.6335 110.13 93.9448 111.714 91.7753C112.747 90.3633 112.747 86.162 111.714 84.7501C110.164 82.615 107.134 81.8918 99.4544 81.8918H94.3577V88.2627ZM106.238 86.0243C107.444 87.1607 107.444 89.3647 106.238 90.5011C105.515 91.1898 104.93 91.3276 102.45 91.4653L99.5232 91.6375V88.5382C99.5232 86.8508 99.6265 85.3355 99.7987 85.1978C99.9365 85.0256 101.245 84.9912 102.726 85.06C104.93 85.1978 105.55 85.37 106.238 86.0243Z" fill="#1F4A83"/>
<path d="M115.02 88.2627V94.6335H117.603H120.185V88.2627V81.8918H117.603H115.02V88.2627Z" fill="#1F4A83"/>
<path d="M126.143 87.815C124.042 91.0865 122.252 93.9792 122.114 94.1859C121.907 94.5302 122.493 94.6335 124.456 94.6335C127.004 94.6335 127.073 94.5991 127.589 93.6004L128.14 92.5673H132.273H136.405L136.991 93.6004C137.576 94.5991 137.645 94.6335 140.228 94.6335H142.879L139.401 89.1925C134.201 81.0998 134.993 81.8918 132.273 81.8918H129.897L126.143 87.815ZM133.581 87.6428L134.615 89.468H132.411C131.171 89.468 130.172 89.3991 130.172 89.2958C130.172 89.1925 130.413 88.7104 130.689 88.2627C130.964 87.7806 131.446 86.9885 131.756 86.5064C132.032 86.0243 132.342 85.6799 132.411 85.7488C132.445 85.7832 132.996 86.6786 133.581 87.6428Z" fill="#1F4A83"/>
<path d="M144.636 88.2627V94.6335H147.219H149.801V90.5011C149.801 88.2282 149.939 86.3686 150.111 86.3686C150.249 86.3686 151.937 88.2282 153.796 90.5011L157.205 94.6335H160.408H163.576V88.2627V81.8918H160.993H158.411V86.0243C158.411 88.2971 158.273 90.1567 158.135 90.1567C157.997 90.1567 156.31 88.2971 154.416 86.0243L151.007 81.8918H147.839H144.636V88.2627Z" fill="#1F4A83"/>
<path d="M170.808 88.2627V94.6335H178.212H185.616V93.0839V91.5342H180.795H175.974V86.713V81.8918H173.391H170.808V88.2627Z" fill="#1F4A83"/>
<path d="M187.338 88.2627V94.6335H194.914H202.49V93.0839V91.5342H197.497H192.503V90.5011V89.468H196.464H200.424V88.2627V87.0574H196.429H192.469L192.572 86.0931L192.676 85.1633L197.256 85.06L201.801 84.9567V83.4415V81.8918H194.57H187.338V88.2627Z" fill="#1F4A83"/>
<path d="M226.699 87.815C224.599 91.0865 222.808 93.9792 222.67 94.1859C222.463 94.5302 223.049 94.6335 225.012 94.6335C227.56 94.6335 227.629 94.5991 228.146 93.6004L228.697 92.5673H232.829H236.961L237.547 93.6004C238.132 94.5991 238.201 94.6335 240.784 94.6335H243.436L239.957 89.1925C234.757 81.0998 235.55 81.8918 232.829 81.8918H230.453L226.699 87.815ZM234.138 87.6428L235.171 89.468H232.967C231.727 89.468 230.728 89.3991 230.728 89.2958C230.728 89.1925 230.969 88.7104 231.245 88.2627C231.52 87.7806 232.003 86.9885 232.312 86.5064C232.588 86.0243 232.898 85.6799 232.967 85.7488C233.001 85.7832 233.552 86.6786 234.138 87.6428Z" fill="#1F4A83"/>
<path d="M245.192 88.2627V94.6335H252.596H260V93.0839V91.5342H255.179H250.357V86.713V81.8918H247.775H245.192V88.2627Z" fill="#1F4A83"/>
</svg>
