<svg width="91" height="101" viewBox="0 0 91 101" fill="none" xmlns="http://www.w3.org/2000/svg">
<path d="M22.1775 12.8247L0 25.7455V50.2853V74.8252L22.4185 87.9388C42.089 99.4133 44.9335 100.956 45.8013 100.426C46.3317 100.136 56.6008 94.1582 68.6056 87.2157L90.3973 74.5359V50.2853V26.083L68.1234 13.1139C55.8776 5.97858 45.512 0.0967282 45.1264 0.000304398C44.6924 -0.0479075 34.3751 5.73752 22.1775 12.8247ZM66.9181 14.8014L87.9867 27.0954V50.2853V73.5235L66.9664 85.7693C55.3473 92.519 45.6085 98.0633 45.2228 98.1598C44.8371 98.2562 34.9054 92.7118 23.1417 85.8657L1.68742 73.4271V50.2853V27.1436L23.0453 14.7049C34.7608 7.90706 44.6924 2.36269 45.1264 2.4109C45.512 2.50732 55.3473 8.05169 66.9181 14.8014Z" fill="#1F4A83"/>
<path d="M37.2518 29.7651C39.1242 29.7831 41.6723 29.7843 44.4384 29.7603V29.7593L53.0331 29.6372L48.6327 21.9028L44.204 14.1548L43.0643 16.1206H43.0653C40.076 21.3038 37.9821 24.9736 36.661 27.3696C36.0983 28.3901 35.6813 29.1712 35.3954 29.7358C35.8902 29.7479 36.5177 29.7581 37.2518 29.7651Z" fill="#0097B1" stroke="#1F4A83" stroke-width="1.80795"/>
<path d="M30.5181 36.6414C31.0484 37.5092 32.3501 39.8716 33.5072 41.8482C37.316 48.5497 36.641 48.3086 39.148 43.9696C40.3051 41.8482 41.9443 39.0037 42.7157 37.6056L44.162 35.0986H36.882H29.5538L30.5181 36.6414Z" fill="#0097B1"/>
<path d="M49.1762 38.0876C50.0922 39.775 51.6832 42.5713 52.6957 44.3551C53.6599 46.1872 54.5759 47.6335 54.7206 47.6335C54.8652 47.6335 55.7812 46.1872 56.7455 44.3551C57.7579 42.5713 59.3489 39.775 60.2649 38.0876L62.0006 35.0984H54.7206H47.4406L49.1762 38.0876Z" fill="#0097B1"/>
<path d="M64.2665 42.9574L59.6382 50.7677L64.1701 50.9123C66.6771 50.9605 70.7269 50.9605 73.1857 50.9123L77.7177 50.7677L73.2822 42.9574L68.8949 35.147L64.2665 42.9574Z" fill="#1F4A83"/>
<path d="M23.4309 37.5574C22.9006 38.4734 20.8275 41.8965 18.899 45.2231L15.2831 51.2496L17.308 51.346C23.1898 51.6835 33.0251 51.6835 33.0251 51.346C33.0251 51.0085 25.0219 36.6414 24.5398 36.111C24.4433 36.0146 23.9612 36.6896 23.4309 37.5574Z" fill="#1F4A83"/>
<path d="M37.8463 48.3567C37.8463 48.887 45.3192 61.615 45.6084 61.615C45.9459 61.615 53.2741 48.9835 53.2741 48.4049C53.2741 48.2603 49.8029 48.1157 45.5602 48.1157C41.3176 48.1157 37.8463 48.2121 37.8463 48.3567Z" fill="#1F4A83"/>
<path d="M54.9616 59.7832C55.8776 61.4706 57.9025 65.0383 59.3971 67.6899L62.1934 72.5593L65.2307 67.2078C66.9181 64.2669 68.943 60.6992 69.7144 59.301L71.1608 56.794H62.1934H53.226L54.9616 59.7832Z" fill="#0097B1"/>
<path d="M19.6221 59.6384C20.0078 60.6991 28.011 74.6323 28.2039 74.6323C28.3485 74.6323 30.4698 71.1611 32.8804 66.9184L37.3159 59.2045H28.3967C23.0934 59.2045 19.5257 59.3974 19.6221 59.6384Z" fill="#0097B1"/>
<path d="M39.8712 73.5234L34.9536 82.1051L44.6924 82.2497C49.9957 82.2979 54.4794 82.2979 54.5759 82.1533C54.7687 81.9605 45.8495 66.0987 45.1263 65.3273C44.8853 65.1345 42.5229 68.7986 39.8712 73.5234Z" fill="#1F4A83"/>
</svg>
