<svg width="160" height="83" viewBox="0 0 160 83" fill="none" xmlns="http://www.w3.org/2000/svg">
<path d="M16.8492 52.4529L9.22942 39.2551H24.469L16.8492 52.4529Z" fill="#00BF63"/>
<path d="M41.988 52.4529L34.3682 39.2551H49.6078L41.988 52.4529Z" fill="#00BF63"/>
<path d="M22.9244 31.9229L18.026 23.4386L27.8229 23.4386L22.9244 31.9229Z" fill="#00BF63"/>
<path d="M35.9128 31.9229L31.0144 23.4386L40.8112 23.4386L35.9128 31.9229Z" fill="#00BF63"/>
<path d="M29.4186 8.46005L37.0384 21.6579H21.7988L29.4186 8.46005Z" fill="#00BF63"/>
<path d="M37.0384 21.6579H21.7988L29.4186 8.46005L37.0384 21.6579ZM23.9756 20.401H34.8617L29.4186 10.9735L23.9756 20.401Z" fill="#1F4A84"/>
<path d="M29.4186 44.0733L22.8874 32.7609H35.9499L29.4186 44.0733Z" fill="#1F4A84"/>
<path d="M29.4186 46.5872L35.9499 57.8997H22.8874L29.4186 46.5872Z" fill="#1F4A84"/>
<path d="M12.6594 22.2864L19.1907 33.5989L6.12816 33.5988L12.6594 22.2864Z" fill="#1F4A84"/>
<path d="M46.1778 22.2864L52.7091 33.5989L39.6466 33.5988L46.1778 22.2864Z" fill="#1F4A84"/>
<path d="M58.4182 18.2013V51.9292L29.2091 68.7932L0 51.9292V18.2013L29.2091 1.33739L58.4182 18.2013ZM2.0949 19.4104V50.7197L29.2091 66.3738L56.3233 50.7197V19.4104L29.2091 3.75635L2.0949 19.4104Z" fill="#00BF63"/>
<path d="M156.37 1.33739L159.635 6.99362L153.104 6.99362L156.37 1.33739Z" fill="#00BF63"/>
<path d="M148.897 9.65329V18.663C148.897 19.8161 149.567 19.977 149.701 20.0038L149.97 20.0574V20.1915H145.143V20.0574L145.411 20.0038C145.545 19.977 146.216 19.8161 146.216 18.663V9.65329C146.216 8.15166 145.599 7.45448 144.902 7.45448C143.775 7.45448 143.239 8.84884 142.998 10.1091V18.663C142.998 19.8161 143.668 19.977 143.802 20.0038L144.07 20.0574V20.1915H139.244V20.0574L139.512 20.0038C139.646 19.977 140.316 19.8161 140.316 18.663V9.11699C140.316 7.96396 139.646 7.80307 139.512 7.77625L139.244 7.72263V7.58855C140.799 7.23996 142.059 6.78411 142.998 6.16737V9.03655C143.534 7.53492 144.526 6.24782 146.216 6.24782C147.637 6.24782 148.897 7.45448 148.897 9.65329Z" fill="#1F4A84"/>
<path d="M139.244 20.1915H137.957C136.992 20.1915 136.241 19.682 135.946 18.8776C135.41 19.8965 134.23 20.4596 132.997 20.4596C131.12 20.4596 129.162 19.2262 129.162 16.357C129.162 11.5571 135.624 12.8174 135.812 10.0823C135.758 8.79523 135.41 6.78413 133.613 6.78413C132.433 6.78413 131.414 8.17849 132.273 9.76056C132.138 10.2164 131.575 10.7795 131.012 10.7795C130.208 10.7795 129.752 10.1628 129.752 9.35834C129.752 7.80308 131.629 6.51598 133.613 6.51598C136.402 6.51598 138.252 7.72264 138.252 11.6912V18.663C138.252 19.8161 138.869 19.977 139.003 20.0038L139.244 20.0574V20.1915ZM135.812 18.0463V10.8331C135.195 12.4152 132.112 12.9783 132.112 16.4106C132.112 17.8586 132.46 19.4943 134.176 19.4943C134.874 19.4943 135.544 19.1725 135.866 18.6362C135.839 18.4485 135.812 18.2608 135.812 18.0463Z" fill="#1F4A84"/>
<path d="M126.757 4.63893C125.684 4.63893 125.148 3.83449 125.148 3.03005C125.148 2.22561 125.684 1.42117 126.757 1.42117C127.83 1.42117 128.366 2.19879 128.366 3.00324C128.366 3.80768 127.83 4.63893 126.757 4.63893ZM125.416 9.11699C125.416 7.96396 124.746 7.80307 124.612 7.77625L124.344 7.72263V7.58855C125.899 7.23996 127.159 6.78411 128.098 6.16737V18.663C128.098 19.8161 128.768 19.977 128.902 20.0038L129.17 20.0574V20.1915H124.344V20.0574L124.612 20.0038C124.746 19.977 125.416 19.8161 125.416 18.663V9.11699Z" fill="#1F4A84"/>
<path d="M124.345 20.1915H122.736C121.664 20.1915 120.886 19.6016 120.672 18.663C120.162 19.7624 119.09 20.3792 117.856 20.3792C114.772 20.3792 113.11 16.7324 113.11 13.2465C113.11 10.1628 114.317 6.24783 117.91 6.24783C118.929 6.24783 120.055 6.70368 120.591 7.53494V2.94962C120.591 1.79659 119.921 1.6357 119.787 1.60888L119.519 1.55525V1.42118C121.074 1.07259 122.334 0.616738 123.273 0V18.663C123.273 19.8161 123.943 19.977 124.077 20.0038L124.345 20.0574V20.1915ZM120.591 18.0463V8.71478C120.538 7.58856 119.599 6.70368 118.5 6.70368C116.757 6.70368 116.113 9.54604 116.113 12.5225C116.113 14.4531 116.435 19.2798 119.17 19.2798C119.84 19.2798 120.377 18.9044 120.618 18.3145C120.591 18.234 120.591 18.1267 120.591 18.0463Z" fill="#1F4A84"/>
<path d="M110.705 4.63893C109.632 4.63893 109.096 3.83449 109.096 3.03005C109.096 2.22561 109.632 1.42117 110.705 1.42117C111.778 1.42117 112.314 2.19879 112.314 3.00324C112.314 3.80768 111.778 4.63893 110.705 4.63893ZM109.364 9.11699C109.364 7.96396 108.694 7.80307 108.56 7.77625L108.292 7.72263V7.58855C109.847 7.23996 111.107 6.78411 112.046 6.16737V18.663C112.046 19.8161 112.716 19.977 112.85 20.0038L113.118 20.0574V20.1915H108.292V20.0574L108.56 20.0038C108.694 19.977 109.364 19.8161 109.364 18.663V9.11699Z" fill="#1F4A84"/>
<path d="M100.33 9.11699C100.33 7.96396 99.6596 7.80307 99.5255 7.77625L99.2573 7.72263V7.58855C100.813 7.23996 102.073 6.78411 103.011 6.16737V9.22425C103.709 7.21314 104.969 6.51596 106.095 6.51596C107.489 6.51596 108.294 7.8567 108.294 9.03655C108.294 10.0019 107.784 10.8868 106.631 10.8868C106.256 10.8868 105.8 10.7795 105.291 10.565C106.095 9.76054 106.015 7.58855 104.754 7.58855C103.735 7.58855 103.253 9.11699 103.011 10.4577V18.663C103.011 19.8161 103.682 19.977 103.816 20.0038L104.084 20.0574V20.1915H99.2573V20.0574L99.5255 20.0038C99.6596 19.977 100.33 19.8161 100.33 18.663V9.11699Z" fill="#1F4A84"/>
<path d="M96.8524 4.63893C95.7798 4.63893 95.2435 3.83449 95.2435 3.03005C95.2435 2.22561 95.7798 1.42117 96.8524 1.42117C97.925 1.42117 98.4613 2.19879 98.4613 3.00324C98.4613 3.80768 97.925 4.63893 96.8524 4.63893ZM95.5117 9.11699C95.5117 7.96396 94.8413 7.80307 94.7072 7.77625L94.4391 7.72263V7.58855C95.9943 7.23996 97.2546 6.78411 98.1931 6.16737V18.663C98.1931 19.8161 98.8635 19.977 98.9976 20.0038L99.2657 20.0574V20.1915H94.4391V20.0574L94.7072 20.0038C94.8413 19.977 95.5117 19.8161 95.5117 18.663V9.11699Z" fill="#1F4A84"/>
<path d="M89.1861 20.2183L84.4935 7.88353C84.1717 7.05228 83.555 6.94502 83.4209 6.9182L83.1528 6.89139V6.78413H88.1403V6.89139L87.8722 6.9182C87.7381 6.94502 87.0141 7.07909 87.3359 7.88353L90.4196 15.4721L92.4039 7.88353C92.6184 7.05228 90.5268 6.94502 90.3928 6.9182L90.1246 6.89139V6.78413H94.9513V6.89139L94.6831 6.9182C94.549 6.94502 92.9402 6.97183 92.6988 7.88353L89.4811 20.2183H89.1861Z" fill="#1F4A84"/>
<path d="M83.1434 9.65329V18.663C83.1434 19.8161 83.8137 19.977 83.9478 20.0038L84.216 20.0574V20.1915H79.3893V20.0574L79.6574 20.0038C79.7915 19.977 80.4619 19.8161 80.4619 18.663V9.65329C80.4619 8.15166 79.8452 7.45448 79.148 7.45448C78.0218 7.45448 77.4855 8.84884 77.2441 10.1091V18.663C77.2441 19.8161 77.9145 19.977 78.0486 20.0038L78.3167 20.0574V20.1915H73.4901V20.0574L73.7582 20.0038C73.8923 19.977 74.5627 19.8161 74.5627 18.663V9.11699C74.5627 7.96396 73.8923 7.80307 73.7582 7.77625L73.4901 7.72263V7.58855C75.0453 7.23996 76.3056 6.78411 77.2441 6.16737V9.03655C77.7804 7.53492 78.7726 6.24782 80.4619 6.24782C81.8831 6.24782 83.1434 7.45448 83.1434 9.65329Z" fill="#1F4A84"/>
<path d="M64.1143 2.94961C64.1143 1.79657 63.444 1.63568 63.3099 1.60887L63.0418 1.55524V1.42117H73.4995V5.57745H73.3654L73.3118 5.3093C73.285 5.17523 72.8559 1.68931 68.7801 1.68931H66.7958V9.46558H69.0214C70.1745 9.46558 70.3354 7.58855 70.3622 7.45448L70.4158 7.18633H70.5499V12.013H70.4158L70.3622 11.7448C70.3354 11.6108 70.1745 9.73373 69.0214 9.73373H66.7958V19.9233H68.7801C72.8559 19.9233 73.285 16.4374 73.3118 16.3033L73.3654 16.0352H73.4995V20.1915H63.0418V20.0574L63.3099 20.0038C63.444 19.977 64.1143 19.8161 64.1143 18.663V2.94961Z" fill="#1F4A84"/>
<path d="M152.492 34.3094C152.492 32.0034 151.151 31.6816 150.883 31.628L150.347 31.5207V31.2525C153.457 30.5554 155.978 29.6437 157.855 28.4102V65.7363C157.855 68.0423 159.196 68.3641 159.464 68.4177L160 68.525V68.7932H150.347V68.525L150.883 68.4177C151.151 68.3641 152.492 68.0423 152.492 65.7363V34.3094Z" fill="#00BF63"/>
<path d="M150.348 68.7932H147.774C145.843 68.7932 144.341 67.7742 143.752 66.1653C142.679 68.2032 140.319 69.3294 137.852 69.3294C134.098 69.3294 130.183 66.8625 130.183 61.1241C130.183 51.5245 143.108 54.0451 143.483 48.5749C143.376 46.0006 142.679 41.9784 139.086 41.9784C136.726 41.9784 134.688 44.7672 136.404 47.9313C136.136 48.843 135.01 49.9692 133.884 49.9692C132.275 49.9692 131.363 48.7357 131.363 47.1269C131.363 44.0164 135.117 41.4421 139.086 41.4421C144.663 41.4421 148.364 43.8555 148.364 51.7926V65.7363C148.364 68.0423 149.597 68.3641 149.865 68.4177L150.348 68.525V68.7932ZM143.483 64.5028V50.0765C142.25 53.2406 136.083 54.3668 136.083 61.2314C136.083 64.1274 136.78 67.3988 140.212 67.3988C141.606 67.3988 142.947 66.7552 143.591 65.6826C143.537 65.3072 143.483 64.9318 143.483 64.5028Z" fill="#00BF63"/>
<path d="M118.205 59.1399C114.88 59.1399 112.252 58.2818 110.321 56.9947C110.107 57.4237 109.999 57.8527 109.999 58.2281C109.999 65.3609 130.7 61.5532 130.7 74.4242C130.7 79.8408 125.659 82.415 120.672 82.415C113.968 82.415 111.179 78.8219 111.179 76.0868C111.179 74.4779 112.145 73.1371 113.914 73.1371C115.148 73.1371 116.381 74.2634 116.649 75.175C116.167 75.9259 115.791 76.8912 115.791 77.7493C115.791 80.0553 117.776 81.8787 120.725 81.8787C123.514 81.8787 126.464 80.2699 126.464 77.1593C126.464 66.4871 107.264 71.7428 107.264 61.0705C107.264 59.408 108.122 57.6382 109.624 56.4584C103.457 51.4172 106.192 40.9058 118.151 40.9058C121.101 40.9058 123.46 41.5494 125.337 42.5684C126.624 41.2276 126.946 39.4042 126.195 37.849C125.82 37.0982 125.016 36.401 124.265 35.9719C124.104 35.0066 124.694 33.4514 125.766 32.9151C126.195 32.7005 126.678 32.5933 127.053 32.5933C128.126 32.5933 129.038 33.2905 129.574 34.3094C130.647 36.401 130.11 40.0478 125.981 42.9974C133.114 47.7704 130.486 59.1399 118.205 59.1399ZM118.205 41.4421C110.482 41.4421 110.321 58.6036 118.205 58.6036C125.981 58.6036 125.82 41.4421 118.205 41.4421Z" fill="#00BF63"/>
<path d="M105.55 52.7043H90.6408C90.5872 52.9188 90.5872 53.0797 90.5872 53.2942C90.5872 58.6572 92.1424 67.2915 99.0606 67.2915C103.619 67.2915 108.392 62.304 109.518 55.4931L110.162 54.4741C108.607 64.9318 103.297 69.4903 97.0227 69.4903C88.7638 69.4903 84.527 61.9822 84.5807 54.7422C84.5807 47.824 88.4956 41.4421 96.0574 41.4421C100.938 41.4421 105.55 44.5526 105.55 52.7043ZM90.6408 52.168H94.9312C98.7388 52.168 99.7578 51.7926 99.2751 48.0922C98.6852 43.4801 97.6663 41.9784 95.9501 41.9784C92.4106 41.9784 90.909 46.7515 90.6408 52.168Z" fill="#00BF63"/>
<path d="M65.2393 65.7363V34.3094C65.2393 32.0034 63.8986 31.6816 63.6304 31.628L63.0941 31.5207V31.2526H72.7474V31.5207L72.2111 31.628C71.943 31.6816 70.6022 32.0034 70.6022 34.3094V68.2569H74.5708C82.7225 68.2569 83.5806 61.2851 83.6342 61.0169L83.7415 60.4806H84.0096V68.7932H63.0941V68.525L63.6304 68.4178C63.8986 68.3641 65.2393 68.0424 65.2393 65.7363Z" fill="#00BF63"/>
</svg>
